<?xml version="1.0" encoding="UTF-8" standalone="yes"?>
<svg version="1.2" width="100%" viewBox="0 0 502 502" xml:space="preserve" baseProfile="tiny-ps" xmlns="http://www.w3.org/2000/svg">
  <title>bimi-svg-tiny-12-ps</title>
  <path fill="#FFFFFF" stroke="none" d="&#xA;M503.000000,198.000000 &#xA;&#x9;C503.000000,299.999969 503.000000,401.499969 503.000000,502.999939 &#xA;&#x9;C335.666718,502.999969 168.333466,502.999969 1.000144,503.000000 &#xA;&#x9;C1.000096,335.666779 1.000096,168.333542 1.000048,1.000234 &#xA;&#x9;C168.333191,1.000156 335.666382,1.000156 502.999786,1.000078 &#xA;&#x9;C503.000000,66.500000 503.000000,132.000000 503.000000,198.000000 &#xA;M502.000275,422.500000 &#xA;&#x9;C502.000275,282.425171 502.000275,142.350372 502.000275,2.294744 &#xA;&#x9;C335.031982,2.294744 168.653976,2.294744 2.294773,2.294744 &#xA;&#x9;C2.294773,168.968048 2.294773,335.346069 2.294773,501.705139 &#xA;&#x9;C168.968094,501.705139 335.346100,501.705139 502.000275,501.705139 &#xA;&#x9;C502.000275,475.440674 502.000275,449.470337 502.000275,422.500000 &#xA;z"/>
  <path fill="#364F3F" stroke="none" d="&#xA;M502.000275,423.000000 &#xA;&#x9;C502.000275,449.470337 502.000275,475.440674 502.000275,501.705139 &#xA;&#x9;C335.346100,501.705139 168.968094,501.705139 2.294773,501.705139 &#xA;&#x9;C2.294773,335.346069 2.294773,168.968048 2.294773,2.294744 &#xA;&#x9;C168.653976,2.294744 335.031982,2.294744 502.000275,2.294744 &#xA;&#x9;C502.000275,142.350372 502.000275,282.425171 502.000275,423.000000 &#xA;M313.424591,285.984375 &#xA;&#x9;C298.847656,246.988998 284.270752,207.993637 269.693329,168.996979 &#xA;&#x9;C260.067047,168.996979 250.903458,169.221481 241.760040,168.889618 &#xA;&#x9;C237.951675,168.751373 236.302444,169.974625 234.999359,173.502197 &#xA;&#x9;C217.218124,221.637024 199.276459,269.712555 181.393265,317.809784 &#xA;&#x9;C178.703888,325.042938 176.110779,332.311859 173.313644,340.002808 &#xA;&#x9;C185.416550,340.002808 196.738342,340.110565 208.052307,339.861633 &#xA;&#x9;C209.411743,339.831726 211.451675,338.129303 211.948837,336.757294 &#xA;&#x9;C215.399017,327.235901 218.438324,317.565918 221.855148,308.031677 &#xA;&#x9;C222.320648,306.732788 224.143311,305.032043 225.352112,305.020355 &#xA;&#x9;C244.825058,304.831909 264.300354,304.887268 283.930908,304.887268 &#xA;&#x9;C287.584747,315.653839 291.104065,326.208130 294.807281,336.697540 &#xA;&#x9;C295.258606,337.975983 296.680908,339.835754 297.682861,339.854614 &#xA;&#x9;C309.436157,340.075897 321.195099,339.996613 333.610931,339.996613 &#xA;&#x9;C326.834015,321.792603 320.299622,304.240051 313.424591,285.984375 &#xA;M380.500000,168.995255 &#xA;&#x9;C370.088074,168.995255 359.676117,168.995255 349.369812,168.995255 &#xA;&#x9;C349.369812,226.385925 349.369812,282.984802 349.369812,339.695312 &#xA;&#x9;C361.183716,339.695312 372.738220,339.695312 384.810211,339.695312 &#xA;&#x9;C384.810211,319.665619 384.810211,299.939453 384.810211,279.887299 &#xA;&#x9;C387.629333,279.887299 389.941772,279.971710 392.246460,279.873535 &#xA;&#x9;C406.859222,279.251038 421.709900,280.028015 436.032867,277.644165 &#xA;&#x9;C467.601379,272.390076 484.947998,246.351532 479.233185,215.183868 &#xA;&#x9;C474.641144,190.139694 456.033844,172.658951 429.412689,170.202713 &#xA;&#x9;C413.539795,168.738174 397.477264,169.328613 380.500000,168.995255 &#xA;M73.368423,204.889618 &#xA;&#x9;C78.011475,199.942749 83.843025,197.088318 90.453285,196.401810 &#xA;&#x9;C112.639290,194.097626 125.170959,201.464508 128.743500,220.293350 &#xA;&#x9;C129.022049,221.761490 128.816742,223.406906 129.415649,224.702057 &#xA;&#x9;C129.904358,225.758911 131.247971,227.124359 132.232056,227.140213 &#xA;&#x9;C143.014572,227.313751 153.800919,227.249039 165.073898,227.249039 &#xA;&#x9;C164.850540,224.993210 164.797745,223.209488 164.483627,221.473022 &#xA;&#x9;C158.727386,189.651230 140.199905,171.381775 107.894020,167.463776 &#xA;&#x9;C69.456543,162.802139 40.277882,180.790024 29.957607,217.264832 &#xA;&#x9;C22.977995,241.932770 23.507910,266.965302 29.603069,291.758423 &#xA;&#x9;C33.273037,306.686615 41.323730,319.061920 53.255596,329.031982 &#xA;&#x9;C75.829231,347.894104 123.869896,347.037537 146.424591,325.054382 &#xA;&#x9;C158.191849,313.585327 163.751266,299.564301 164.915955,283.248047 &#xA;&#x9;C152.881287,283.248047 141.295776,283.248047 129.444489,283.248047 &#xA;&#x9;C129.287811,284.584869 129.194931,285.712280 129.018814,286.826538 &#xA;&#x9;C127.682304,295.283020 124.910423,302.961121 117.405914,308.042358 &#xA;&#x9;C97.847168,321.285339 70.981117,311.683441 64.904594,289.052551 &#xA;&#x9;C59.855186,270.246918 61.174259,251.060684 62.668533,231.976700 &#xA;&#x9;C63.429607,222.256668 66.234711,213.022552 73.368423,204.889618 &#xA;z"/>
  <path fill="#FEFEFE" stroke="none" d="&#xA;M313.594910,286.335938 &#xA;&#x9;C320.299622,304.240051 326.834015,321.792603 333.610931,339.996613 &#xA;&#x9;C321.195099,339.996613 309.436157,340.075897 297.682861,339.854614 &#xA;&#x9;C296.680908,339.835754 295.258606,337.975983 294.807281,336.697540 &#xA;&#x9;C291.104065,326.208130 287.584747,315.653839 283.930908,304.887268 &#xA;&#x9;C264.300354,304.887268 244.825058,304.831909 225.352112,305.020355 &#xA;&#x9;C224.143311,305.032043 222.320648,306.732788 221.855148,308.031677 &#xA;&#x9;C218.438324,317.565918 215.399017,327.235901 211.948837,336.757294 &#xA;&#x9;C211.451675,338.129303 209.411743,339.831726 208.052307,339.861633 &#xA;&#x9;C196.738342,340.110565 185.416550,340.002808 173.313644,340.002808 &#xA;&#x9;C176.110779,332.311859 178.703888,325.042938 181.393265,317.809784 &#xA;&#x9;C199.276459,269.712555 217.218124,221.637024 234.999359,173.502197 &#xA;&#x9;C236.302444,169.974625 237.951675,168.751373 241.760040,168.889618 &#xA;&#x9;C250.903458,169.221481 260.067047,168.996979 269.693329,168.996979 &#xA;&#x9;C284.270752,207.993637 298.847656,246.988998 313.594910,286.335938 &#xA;M271.374542,267.073914 &#xA;&#x9;C265.473755,249.509995 259.572968,231.946075 253.232712,213.074081 &#xA;&#x9;C246.088242,234.645172 239.319077,255.083069 232.390701,276.001709 &#xA;&#x9;C240.084656,276.001709 246.888443,276.001709 253.692230,276.001709 &#xA;&#x9;C260.413208,276.001709 267.134155,276.001709 274.287048,276.001709 &#xA;&#x9;C273.287018,272.825165 272.496490,270.314178 271.374542,267.073914 &#xA;z"/>
  <path fill="#FDFDFD" stroke="none" d="&#xA;M381.000000,168.995255 &#xA;&#x9;C397.477264,169.328613 413.539795,168.738174 429.412689,170.202713 &#xA;&#x9;C456.033844,172.658951 474.641144,190.139694 479.233185,215.183868 &#xA;&#x9;C484.947998,246.351532 467.601379,272.390076 436.032867,277.644165 &#xA;&#x9;C421.709900,280.028015 406.859222,279.251038 392.246460,279.873535 &#xA;&#x9;C389.941772,279.971710 387.629333,279.887299 384.810211,279.887299 &#xA;&#x9;C384.810211,299.939453 384.810211,319.665619 384.810211,339.695312 &#xA;&#x9;C372.738220,339.695312 361.183716,339.695312 349.369812,339.695312 &#xA;&#x9;C349.369812,282.984802 349.369812,226.385925 349.369812,168.995255 &#xA;&#x9;C359.676117,168.995255 370.088074,168.995255 381.000000,168.995255 &#xA;M441.822327,238.019958 &#xA;&#x9;C442.260864,236.767319 442.811554,235.541733 443.121033,234.257980 &#xA;&#x9;C447.602600,215.666763 438.049591,198.277847 416.997986,197.973648 &#xA;&#x9;C407.011292,197.829330 397.021240,197.902145 387.032806,197.919266 &#xA;&#x9;C386.280914,197.920547 385.529602,198.264893 384.874817,198.425949 &#xA;&#x9;C384.874817,215.973877 384.874817,233.242935 384.874817,250.711823 &#xA;&#x9;C397.349274,250.711823 409.645447,251.182281 421.884247,250.547302 &#xA;&#x9;C430.116058,250.120224 437.357635,246.654800 441.822327,238.019958 &#xA;z"/>
  <path fill="#FDFDFD" stroke="none" d="&#xA;M73.127914,205.156158 &#xA;&#x9;C66.234711,213.022552 63.429607,222.256668 62.668533,231.976700 &#xA;&#x9;C61.174259,251.060684 59.855186,270.246918 64.904594,289.052551 &#xA;&#x9;C70.981117,311.683441 97.847168,321.285339 117.405914,308.042358 &#xA;&#x9;C124.910423,302.961121 127.682304,295.283020 129.018814,286.826538 &#xA;&#x9;C129.194931,285.712280 129.287811,284.584869 129.444489,283.248047 &#xA;&#x9;C141.295776,283.248047 152.881287,283.248047 164.915955,283.248047 &#xA;&#x9;C163.751266,299.564301 158.191849,313.585327 146.424591,325.054382 &#xA;&#x9;C123.869896,347.037537 75.829231,347.894104 53.255596,329.031982 &#xA;&#x9;C41.323730,319.061920 33.273037,306.686615 29.603069,291.758423 &#xA;&#x9;C23.507910,266.965302 22.977995,241.932770 29.957607,217.264832 &#xA;&#x9;C40.277882,180.790024 69.456543,162.802139 107.894020,167.463776 &#xA;&#x9;C140.199905,171.381775 158.727386,189.651230 164.483627,221.473022 &#xA;&#x9;C164.797745,223.209488 164.850540,224.993210 165.073898,227.249039 &#xA;&#x9;C153.800919,227.249039 143.014572,227.313751 132.232056,227.140213 &#xA;&#x9;C131.247971,227.124359 129.904358,225.758911 129.415649,224.702057 &#xA;&#x9;C128.816742,223.406906 129.022049,221.761490 128.743500,220.293350 &#xA;&#x9;C125.170959,201.464508 112.639290,194.097626 90.453285,196.401810 &#xA;&#x9;C83.843025,197.088318 78.011475,199.942749 73.127914,205.156158 &#xA;z"/>
  <path fill="#385141" stroke="none" d="&#xA;M271.540283,267.438538 &#xA;&#x9;C272.496490,270.314178 273.287018,272.825165 274.287048,276.001709 &#xA;&#x9;C267.134155,276.001709 260.413208,276.001709 253.692230,276.001709 &#xA;&#x9;C246.888443,276.001709 240.084656,276.001709 232.390701,276.001709 &#xA;&#x9;C239.319077,255.083069 246.088242,234.645172 253.232712,213.074081 &#xA;&#x9;C259.572968,231.946075 265.473755,249.509995 271.540283,267.438538 &#xA;z"/>
  <path fill="#375040" stroke="none" d="&#xA;M441.621826,238.347198 &#xA;&#x9;C437.357635,246.654800 430.116058,250.120224 421.884247,250.547302 &#xA;&#x9;C409.645447,251.182281 397.349274,250.711823 384.874817,250.711823 &#xA;&#x9;C384.874817,233.242935 384.874817,215.973877 384.874817,198.425949 &#xA;&#x9;C385.529602,198.264893 386.280914,197.920547 387.032806,197.919266 &#xA;&#x9;C397.021240,197.902145 407.011292,197.829330 416.997986,197.973648 &#xA;&#x9;C438.049591,198.277847 447.602600,215.666763 443.121033,234.257980 &#xA;&#x9;C442.811554,235.541733 442.260864,236.767319 441.621826,238.347198 &#xA;z"/>
</svg>